<svg width="48" height="48" viewBox="0 0 48 48" fill="none" xmlns="http://www.w3.org/2000/svg">
<path d="M26 7C26 6.20435 25.6839 5.44129 25.1213 4.87868C24.5587 4.31607 23.7956 4 23 4C22.2044 4 21.4413 4.31607 20.8787 4.87868C20.3161 5.44129 20 6.20435 20 7V20H7C6.20435 20 5.44129 20.3161 4.87868 20.8787C4.31607 21.4413 4 22.2044 4 23C4 23.7956 4.31607 24.5587 4.87868 25.1213C5.44129 25.6839 6.20435 26 7 26H20V39C20 39.7957 20.3161 40.5587 20.8787 41.1213C21.4413 41.6839 22.2044 42 23 42C23.7956 42 24.5587 41.6839 25.1213 41.1213C25.6839 40.5587 26 39.7957 26 39V26H39C39.7957 26 40.5587 25.6839 41.1213 25.1213C41.6839 24.5587 42 23.7956 42 23C42 22.2044 41.6839 21.4413 41.1213 20.8787C40.5587 20.3161 39.7957 20 39 20H26V7Z" fill="black"/>
</svg>
