<svg width="292" height="112" viewBox="0 0 292 112" fill="none" xmlns="http://www.w3.org/2000/svg">
<g clip-path="url(#clip0_157_47)">
<path d="M51.3042 75.2934C49.7527 66.7882 41.7881 59.626 32.1685 57.5668C31.0308 57.2982 29.893 57.1192 28.6517 57.0296C29.0655 56.4925 29.4792 55.9553 29.7895 55.5076C33.7201 50.315 39.6159 44.6747 37.4438 37.9601C33.927 26.5005 15.7222 24.7099 6.20609 31.4245C-4.6547 39.124 1.6549 51.5684 3.30988 61.4165C3.51675 62.6699 3.72363 63.9233 3.9305 65.2662C3.41332 65.8929 2.89614 66.6092 2.37896 67.2359C-0.206945 70.7275 1.96521 74.5772 5.48204 76.3678C6.20609 82.6347 6.82671 88.9017 7.34389 95.1687C6.72327 95.2582 6.10266 95.3478 5.58548 95.4373C-3.93064 96.9593 -0.310381 109.314 8.99887 108.508C12.4123 113.97 23.8937 113.074 23.5834 105.644C29.2723 104.122 34.7544 102.062 39.5125 98.7499C47.684 93.1991 52.9592 84.3358 51.3042 75.2934ZM16.86 41.3622C17.8944 40.825 21.4112 40.2878 22.1352 41.4517C22.7559 42.526 20.9975 43.6004 20.2734 44.3166C18.7219 45.7491 17.4806 47.3606 16.2394 48.9721C16.136 48.4349 16.0325 47.8977 15.9291 47.3606C15.4119 45.3014 14.481 42.526 16.86 41.3622ZM35.9957 80.2175C34.7544 86.3054 29.0655 89.797 22.549 91.9457C21.9284 85.1415 21.1009 78.3374 20.0665 71.5332C22.9627 70.2798 26.1693 69.8322 29.3758 70.9065C33.927 72.339 36.8232 76.0992 35.9957 80.2175Z" fill="white"/>
<path d="M100.436 77.6211C97.7471 75.2934 92.0581 74.7562 89.4722 77.6211C84.921 82.5452 77.7839 81.7394 73.1293 77.263C83.7832 70.7274 93.1959 59.3573 89.1619 48.0768C86.7828 41.4517 79.3355 37.5124 71.4743 38.1391C63.9235 38.7658 57.7173 43.0632 54.6142 48.972C48.6149 60.6107 51.8215 76.7259 61.5445 86.2159C71.4743 95.8849 90.5065 97.8545 100.436 87.0216C103.022 84.2462 103.643 80.3965 100.436 77.6211ZM67.5437 58.9097C67.8541 56.4924 68.6815 53.0904 71.4743 51.9265C73.6465 51.0312 74.7843 51.7474 74.6808 53.8961C74.474 57.7458 71.2674 61.4165 67.4403 64.1919C67.2334 62.4013 67.2334 60.6107 67.5437 58.9097Z" fill="white"/>
<path d="M254.246 63.8338C251.557 61.506 245.868 60.9689 243.282 63.8338C238.73 68.7578 231.593 67.9521 226.939 63.4757C237.696 56.8506 247.109 45.4805 243.075 34.2894C240.696 27.6643 233.248 23.7251 225.387 24.3518C217.836 24.9785 211.63 29.2758 208.527 35.1847C202.528 46.8234 205.734 62.9385 215.457 72.4285C225.387 82.0976 244.419 84.0672 254.349 73.2343C256.832 70.4589 257.349 66.6092 254.246 63.8338ZM221.25 45.1223C221.56 42.7051 222.388 39.303 225.18 38.1391C227.353 37.2438 228.49 37.9601 228.387 40.1087C228.18 43.9585 224.973 47.6291 221.146 50.4045C221.043 48.6139 221.043 46.8234 221.25 45.1223Z" fill="white"/>
<path d="M159.602 74.1295C159.912 68.5788 160.119 63.028 160.429 57.4772C160.636 52.9113 160.119 47.5396 163.636 43.8689C164.05 43.5108 164.67 43.4213 163.739 43.0632C164.153 43.1527 164.67 45.57 164.67 45.6595C165.291 48.0768 165.705 50.494 166.118 52.9113C167.153 58.9097 167.67 64.9976 167.877 71.0855C168.187 79.6803 183.702 79.7698 183.392 71.0855C183.082 61.7746 182.047 52.3741 179.875 43.3318C178.013 35.4533 171.704 28.47 161.36 30.3501C151.948 32.0512 146.983 39.9297 145.741 47.5396C144.293 56.3134 144.5 65.4453 144.086 74.219C143.673 82.7242 159.188 82.7242 159.602 74.1295Z" fill="white"/>
<path d="M193.115 1.52194C194.253 2.14864 195.184 2.9544 195.908 3.93921C196.218 4.47638 196.425 5.01355 196.735 5.55072C197.149 6.71459 197.149 7.96799 196.735 9.13186C196.425 9.66903 196.218 10.2062 195.908 10.7434C195.391 11.5491 194.77 12.1758 193.943 12.6235C193.219 13.2502 192.288 13.6083 191.253 13.7873C190.219 14.0559 189.185 14.1454 188.15 13.8769C187.116 13.8769 186.185 13.6083 185.254 13.0711C184.84 12.892 184.323 12.713 183.909 12.5339C182.772 11.9072 181.841 11.1015 181.117 10.1167C180.806 9.5795 180.599 9.04233 180.289 8.50516C179.875 7.34129 179.875 6.08789 180.289 4.92402C180.599 4.38685 180.806 3.84968 181.117 3.31251C181.634 2.50675 182.254 1.88006 183.082 1.43241C183.806 0.805715 184.737 0.447602 185.771 0.268545C186.806 -4.04008e-05 187.84 -0.0895688 188.874 0.179016C189.909 0.179016 190.84 0.447601 191.77 0.984772C192.288 1.0743 192.701 1.34289 193.115 1.52194ZM184.22 33.7522C183.806 46.1966 184.323 58.7306 185.564 71.175C186.392 79.6802 201.907 79.7698 201.08 71.175C199.838 58.7306 199.425 46.2861 199.735 33.7522C199.942 25.1574 184.427 25.1574 184.22 33.7522Z" fill="white"/>
<path d="M291.483 32.7675C288.483 26.0529 281.863 22.2031 273.588 21.9346C264.589 21.7555 257.763 25.6947 256.728 33.5732C255.591 41.8099 259.728 48.2559 266.141 54.0752C268.52 56.2239 273.071 59.1784 273.588 62.4014C273.692 63.2071 273.795 64.0129 272.968 64.6396C274.106 63.7443 273.382 63.9234 272.037 62.5804C265.624 55.9553 254.763 65.4454 261.073 72.0704C266.555 77.8003 275.967 79.8594 282.898 74.8458C289.104 70.4589 290.552 63.0281 287.656 56.6716C284.553 49.9569 277.105 46.4653 273.278 40.3774C272.347 38.9449 272.761 37.0649 272.037 35.8115C272.037 35.4533 272.037 35.1848 272.14 34.8266C270.382 35.6324 270.382 35.8115 272.037 35.2743C273.899 35.4533 276.381 35.4533 276.691 36.1696C280.001 44.3167 295.103 40.825 291.483 32.7675Z" fill="white"/>
<path d="M140.88 75.6515C136.018 72.7866 134.881 66.5196 133.95 61.8641C132.398 54.5228 131.881 47.0024 131.984 39.482C131.984 35.1847 127.95 32.8569 123.916 32.9464C115.952 29.0072 104.264 39.3925 99.8158 44.6747C93.1959 52.5532 88.4378 64.9081 95.0577 73.8609C101.678 82.9033 114.814 82.6347 122.055 75.2038C124.33 79.9488 127.744 84.1567 133.019 87.2006C141.294 92.1247 149.051 80.5755 140.88 75.6515ZM115.228 52.6427C114.814 55.7762 113.676 58.8201 112.642 61.7746C112.332 62.4908 110.78 67.3253 109.642 67.5044C105.298 68.1311 109.022 58.0144 109.746 56.761C110.987 54.3437 112.642 52.1055 114.711 50.1359C115.021 49.8673 115.228 49.5987 115.538 49.4197C115.435 50.5835 115.331 51.6579 115.228 52.6427Z" fill="white"/>
<g clip-path="url(#clip1_157_47)">
<path d="M51.3042 75.2934C49.7527 66.7882 41.7881 59.626 32.1685 57.5668C31.0308 57.2982 29.893 57.1192 28.6517 57.0296C29.0655 56.4925 29.4792 55.9553 29.7895 55.5076C33.7201 50.315 39.6159 44.6747 37.4438 37.9601C33.927 26.5005 15.7222 24.7099 6.20609 31.4245C-4.6547 39.124 1.6549 51.5684 3.30988 61.4165C3.51675 62.6699 3.72363 63.9233 3.9305 65.2662C3.41332 65.8929 2.89614 66.6092 2.37896 67.2359C-0.206945 70.7275 1.96521 74.5772 5.48204 76.3678C6.20609 82.6347 6.82671 88.9017 7.34389 95.1687C6.72327 95.2582 6.10266 95.3478 5.58548 95.4373C-3.93064 96.9593 -0.310381 109.314 8.99887 108.508C12.4123 113.97 23.8937 113.074 23.5834 105.644C29.2723 104.122 34.7544 102.062 39.5125 98.7499C47.684 93.1991 52.9592 84.3358 51.3042 75.2934ZM16.86 41.3622C17.8944 40.825 21.4112 40.2878 22.1352 41.4517C22.7559 42.526 20.9975 43.6004 20.2734 44.3166C18.7219 45.7491 17.4806 47.3606 16.2394 48.9721C16.136 48.4349 16.0325 47.8977 15.9291 47.3606C15.4119 45.3014 14.481 42.526 16.86 41.3622ZM35.9957 80.2175C34.7544 86.3054 29.0655 89.797 22.549 91.9457C21.9284 85.1415 21.1009 78.3374 20.0665 71.5332C22.9627 70.2798 26.1693 69.8322 29.3758 70.9065C33.927 72.339 36.8232 76.0992 35.9957 80.2175Z" fill="#C5C5E3"/>
<path d="M100.436 77.6211C97.7471 75.2934 92.0581 74.7562 89.4722 77.6211C84.921 82.5452 77.7839 81.7394 73.1293 77.263C83.7832 70.7274 93.1959 59.3573 89.1619 48.0768C86.7828 41.4517 79.3355 37.5124 71.4743 38.1391C63.9235 38.7658 57.7173 43.0632 54.6142 48.972C48.6149 60.6107 51.8215 76.7259 61.5445 86.2159C71.4743 95.8849 90.5065 97.8545 100.436 87.0216C103.022 84.2462 103.643 80.3965 100.436 77.6211ZM67.5437 58.9097C67.8541 56.4924 68.6815 53.0904 71.4743 51.9265C73.6465 51.0312 74.7843 51.7474 74.6808 53.8961C74.474 57.7458 71.2674 61.4165 67.4403 64.1919C67.2334 62.4013 67.2334 60.6107 67.5437 58.9097Z" fill="#FFCA38"/>
<path d="M254.246 63.8338C251.557 61.506 245.868 60.9689 243.282 63.8338C238.73 68.7578 231.593 67.9521 226.939 63.4757C237.696 56.8506 247.109 45.4805 243.075 34.2894C240.696 27.6643 233.248 23.7251 225.387 24.3518C217.836 24.9785 211.63 29.2758 208.527 35.1847C202.528 46.8234 205.734 62.9385 215.457 72.4285C225.387 82.0976 244.419 84.0672 254.349 73.2343C256.832 70.4589 257.349 66.6092 254.246 63.8338ZM221.25 45.1223C221.56 42.7051 222.388 39.303 225.18 38.1391C227.353 37.2438 228.49 37.9601 228.387 40.1087C228.18 43.9585 224.973 47.6291 221.146 50.4045C221.043 48.6139 221.043 46.8234 221.25 45.1223Z" fill="#69E16D"/>
<path d="M159.602 74.1295C159.912 68.5788 160.119 63.028 160.429 57.4772C160.636 52.9113 160.119 47.5396 163.636 43.8689C164.05 43.5108 164.67 43.4213 163.739 43.0632C164.153 43.1527 164.67 45.57 164.67 45.6595C165.291 48.0768 165.705 50.494 166.118 52.9113C167.153 58.9097 167.67 64.9976 167.877 71.0855C168.187 79.6803 183.702 79.7698 183.392 71.0855C183.082 61.7746 182.047 52.3741 179.875 43.3318C178.013 35.4533 171.704 28.47 161.36 30.3501C151.948 32.0512 146.983 39.9297 145.741 47.5396C144.293 56.3134 144.5 65.4453 144.086 74.219C143.673 82.7242 159.188 82.7242 159.602 74.1295Z" fill="#4C9BF5"/>
<path d="M193.115 1.52194C194.253 2.14864 195.184 2.9544 195.908 3.93921C196.218 4.47638 196.425 5.01355 196.735 5.55072C197.149 6.71459 197.149 7.96799 196.735 9.13186C196.425 9.66903 196.218 10.2062 195.908 10.7434C195.391 11.5491 194.77 12.1758 193.943 12.6235C193.219 13.2502 192.288 13.6083 191.253 13.7873C190.219 14.0559 189.185 14.1454 188.15 13.8769C187.116 13.8769 186.185 13.6083 185.254 13.0711C184.84 12.892 184.323 12.713 183.909 12.5339C182.772 11.9072 181.841 11.1015 181.117 10.1167C180.806 9.5795 180.599 9.04233 180.289 8.50516C179.875 7.34129 179.875 6.08789 180.289 4.92402C180.599 4.38685 180.806 3.84968 181.117 3.31251C181.634 2.50675 182.254 1.88006 183.082 1.43241C183.806 0.805715 184.737 0.447602 185.771 0.268545C186.806 -4.04008e-05 187.84 -0.0895688 188.874 0.179016C189.909 0.179016 190.84 0.447601 191.77 0.984772C192.288 1.0743 192.701 1.34289 193.115 1.52194ZM184.22 33.7522C183.806 46.1966 184.323 58.7306 185.564 71.175C186.392 79.6802 201.907 79.7698 201.08 71.175C199.838 58.7306 199.425 46.2861 199.735 33.7522C199.942 25.1574 184.427 25.1574 184.22 33.7522Z" fill="#FDB3A6"/>
<path d="M291.483 32.7675C288.483 26.0529 281.863 22.2031 273.588 21.9346C264.589 21.7555 257.763 25.6947 256.728 33.5732C255.591 41.8099 259.728 48.2559 266.141 54.0752C268.52 56.2239 273.071 59.1784 273.588 62.4014C273.692 63.2071 273.795 64.0129 272.968 64.6396C274.106 63.7443 273.382 63.9234 272.037 62.5804C265.624 55.9553 254.763 65.4454 261.073 72.0704C266.555 77.8003 275.967 79.8594 282.898 74.8458C289.104 70.4589 290.552 63.0281 287.656 56.6716C284.553 49.9569 277.105 46.4653 273.278 40.3774C272.347 38.9449 272.761 37.0649 272.037 35.8115C272.037 35.4533 272.037 35.1848 272.14 34.8266C270.382 35.6324 270.382 35.8115 272.037 35.2743C273.899 35.4533 276.381 35.4533 276.691 36.1696C280.001 44.3167 295.103 40.825 291.483 32.7675Z" fill="#FB6349"/>
<path d="M140.88 75.6515C136.018 72.7866 134.881 66.5196 133.95 61.8641C132.398 54.5228 131.881 47.0024 131.984 39.482C131.984 35.1847 127.95 32.8569 123.916 32.9464C115.952 29.0072 104.264 39.3925 99.8158 44.6747C93.1959 52.5532 88.4378 64.9081 95.0577 73.8609C101.678 82.9033 114.814 82.6347 122.055 75.2038C124.33 79.9488 127.744 84.1567 133.019 87.2006C141.294 92.1247 149.051 80.5755 140.88 75.6515ZM115.228 52.6427C114.814 55.7762 113.676 58.8201 112.642 61.7746C112.332 62.4908 110.78 67.3253 109.642 67.5044C105.298 68.1311 109.022 58.0144 109.746 56.761C110.987 54.3437 112.642 52.1055 114.711 50.1359C115.021 49.8673 115.228 49.5987 115.538 49.4197C115.435 50.5835 115.331 51.6579 115.228 52.6427Z" fill="#F586BA"/>
</g>
</g>
<defs>
<clipPath id="clip0_157_47">
<rect width="292" height="112" fill="white"/>
</clipPath>
<clipPath id="clip1_157_47">
<rect width="292" height="112" fill="white"/>
</clipPath>
</defs>
</svg>
