<svg width="28" height="22" viewBox="0 0 28 22" fill="none" xmlns="http://www.w3.org/2000/svg">
<path d="M23.614 1.93296C21.8459 1.10451 19.9206 0.512763 17.9167 0.157715C17.8775 0.157715 17.8382 0.157715 17.8382 0.197165C17.6024 0.631113 17.3274 1.22286 17.1309 1.65681C14.9699 1.34121 12.8482 1.34121 10.7658 1.65681C10.5693 1.18341 10.2943 0.631113 10.0585 0.197165C10.0585 0.157715 10.0192 0.157715 9.97998 0.157715C7.97613 0.512763 6.09016 1.10451 4.28277 1.93296C4.28277 1.93296 4.24348 1.93296 4.24348 1.97241C0.628697 7.37704 -0.35358 12.6633 0.117913 17.9101C0.117913 17.9496 0.117913 17.9496 0.157204 17.989C2.55396 19.7643 4.87214 20.8294 7.11173 21.5395C7.15102 21.5395 7.19031 21.5395 7.19031 21.5001C7.74038 20.7505 8.21188 20.001 8.60479 19.1725C8.64408 19.1331 8.60479 19.0542 8.5655 19.0542C7.81897 18.778 7.07244 18.423 6.40449 18.0285C6.3652 17.989 6.32591 17.9101 6.40449 17.8707C6.56165 17.7523 6.67953 17.634 6.83669 17.5156C6.87598 17.4762 6.91527 17.4762 6.91527 17.5156C11.473 19.6065 16.4237 19.6065 20.9422 17.5156C20.9815 17.5156 21.0207 17.5156 21.0207 17.5156C21.1779 17.634 21.2958 17.7523 21.4529 17.8707C21.4922 17.9101 21.4922 17.989 21.4529 18.0285C20.7457 18.423 20.0385 18.778 19.2919 19.0542C19.2526 19.0542 19.2134 19.1331 19.2526 19.1725C19.6848 20.001 20.1563 20.7505 20.6671 21.5001C20.7064 21.5395 20.7457 21.5395 20.7457 21.5395C23.0246 20.8294 25.3428 19.7643 27.7395 17.989C27.7788 17.989 27.7788 17.9496 27.7788 17.9101C28.3682 11.8743 26.7965 6.62749 23.614 1.93296C23.614 1.93296 23.6532 1.93296 23.614 1.93296ZM9.31203 14.7147C7.93684 14.7147 6.7974 13.4523 6.7974 11.8743C6.7974 10.2963 7.89755 9.03393 9.31203 9.03393C10.7265 9.03393 11.8266 10.2963 11.8266 11.8743C11.8266 13.4523 10.7265 14.7147 9.31203 14.7147ZM18.5847 14.7147C17.2095 14.7147 16.0701 13.4523 16.0701 11.8743C16.0701 10.2963 17.1702 9.03393 18.5847 9.03393C19.9992 9.03393 21.0993 10.2963 21.0993 11.8743C21.0993 13.4523 19.9992 14.7147 18.5847 14.7147Z" fill="#0F6152"/>
</svg>
