<svg width="22" height="22" viewBox="0 0 22 22" fill="none" xmlns="http://www.w3.org/2000/svg">
<g clip-path="url(#clip0_157_119)">
<path d="M10.941 1.99059C12.4339 1.89106 13.8273 1.99059 15.3203 2.09012C16.017 2.09012 16.7137 2.18965 17.4104 2.48824C18.3061 2.88635 19.0028 3.68259 19.5005 4.57835C19.6996 5.27506 19.8986 5.97177 19.8986 6.66847C19.8986 7.7633 19.9981 8.16141 19.9981 11.0478C20.0977 12.5407 19.9981 13.9341 19.8986 15.4271C19.8986 16.1238 19.7991 16.8205 19.5005 17.5172C19.1024 18.4129 18.3061 19.1097 17.4104 19.6073C16.7137 19.8064 16.017 20.0054 15.3203 20.0054C14.2254 20.0054 13.8273 20.1049 10.941 20.1049C9.44802 20.2045 8.05461 20.1049 6.56167 20.0054C5.86496 20.0054 5.16825 19.9059 4.47155 19.6073C3.57578 19.2092 2.87908 18.4129 2.38143 17.5172C2.18237 16.8205 1.98331 16.1238 1.98331 15.4271C1.98331 14.3322 1.88378 13.9341 1.88378 11.0478C1.98331 9.4553 1.98331 7.96236 2.18237 6.56894C2.18237 5.87224 2.2819 5.17553 2.58049 4.47882C2.77955 4.08071 3.07814 3.58306 3.37672 3.28447C3.67531 2.88635 4.07343 2.58777 4.57108 2.38871C5.26778 2.18965 5.96449 1.99059 6.6612 1.99059C8.05461 1.89106 9.54755 1.89106 10.941 1.99059ZM10.941 0C9.44802 0 7.95508 0 6.46214 0.0995294C5.56637 0.0995294 4.67061 0.298588 3.77484 0.597177C3.07814 0.895765 2.48096 1.29388 1.88378 1.79153C1.38613 2.38871 0.988017 2.98588 0.689429 3.78212C0.291311 4.57835 0.191781 5.47412 0.191781 6.36988C0.0922518 7.86283 0.0922518 9.35577 0.0922518 10.8487C-0.00727762 12.3417 0.0922518 13.8346 0.191781 15.3275C0.191781 16.2233 0.39084 17.1191 0.689429 18.0148C0.888488 18.7115 1.38613 19.4082 1.88378 19.9059C2.38143 20.5031 3.07814 20.9012 3.77484 21.1002C4.67061 21.3988 5.56637 21.5979 6.46214 21.5979C7.95508 21.6974 9.44802 21.7969 10.941 21.6974C12.4339 21.7969 13.9268 21.6974 15.4198 21.5979C16.3156 21.5979 17.2113 21.3988 18.1071 21.1002C19.6 20.6026 20.6948 19.4082 21.292 17.9153C21.5906 17.1191 21.7897 16.1238 21.7897 15.228C21.7897 14.0337 21.8892 13.6355 21.8892 10.7492C21.9887 9.25624 21.8892 7.7633 21.7897 6.27035C21.7897 5.37459 21.5906 4.47882 21.292 3.58306C20.9934 2.98588 20.4958 2.38871 19.9981 1.79153C19.5005 1.19435 18.8038 0.796236 18.1071 0.597177C17.2113 0.298588 16.3156 0.0995294 15.4198 0.0995294C13.9268 0 12.4339 0 10.941 0ZM10.941 5.27506C7.95508 5.17553 5.46684 7.66377 5.36731 10.6496V10.8487C5.36731 13.9341 7.85555 16.4224 10.941 16.4224C14.0264 16.4224 16.5146 13.9341 16.5146 10.8487C16.5146 7.7633 14.0264 5.27506 10.941 5.27506ZM10.941 14.4318C8.95037 14.4318 7.3579 12.9388 7.3579 10.9482V10.8487C7.3579 8.85812 8.85084 7.26565 10.8414 7.26565H10.941C12.9316 7.26565 14.524 8.75859 14.524 10.7492V10.8487C14.524 12.8393 13.0311 14.4318 11.0405 14.4318H10.941ZM16.7137 3.78212C16.017 3.78212 15.4198 4.3793 15.4198 5.076C15.4198 5.77271 16.017 6.36988 16.7137 6.36988C17.4104 6.36988 18.0076 5.77271 18.0076 5.076C18.1071 4.3793 17.5099 3.78212 16.7137 3.78212Z" fill="white"/>
</g>
<defs>
<clipPath id="clip0_157_119">
<rect width="21.6974" height="21.6974" fill="white" transform="translate(0.0922546)"/>
</clipPath>
</defs>
</svg>
