<svg width="22" height="22" viewBox="0 0 22 22" fill="none" xmlns="http://www.w3.org/2000/svg">
<path d="M10.9408 1.99059C12.4337 1.89106 13.8271 1.99059 15.3201 2.09012C16.0168 2.09012 16.7135 2.18965 17.4102 2.48824C18.3059 2.88635 19.0026 3.68259 19.5003 4.57835C19.6994 5.27506 19.8984 5.97177 19.8984 6.66847C19.8984 7.7633 19.9979 8.16141 19.9979 11.0478C20.0975 12.5407 19.9979 13.9341 19.8984 15.4271C19.8984 16.1238 19.7989 16.8205 19.5003 17.5172C19.1022 18.4129 18.3059 19.1097 17.4102 19.6073C16.7135 19.8064 16.0168 20.0054 15.3201 20.0054C14.2252 20.0054 13.8271 20.1049 10.9408 20.1049C9.44778 20.2045 8.05437 20.1049 6.56143 20.0054C5.86472 20.0054 5.16801 19.9059 4.47131 19.6073C3.57554 19.2092 2.87884 18.4129 2.38119 17.5172C2.18213 16.8205 1.98307 16.1238 1.98307 15.4271C1.98307 14.3322 1.88354 13.9341 1.88354 11.0478C1.98307 9.4553 1.98307 7.96236 2.18213 6.56894C2.18213 5.87224 2.28166 5.17553 2.58025 4.47882C2.77931 4.08071 3.0779 3.58306 3.37648 3.28447C3.67507 2.88635 4.07319 2.58777 4.57084 2.38871C5.26754 2.18965 5.96425 1.99059 6.66096 1.99059C8.05437 1.89106 9.54731 1.89106 10.9408 1.99059ZM10.9408 0C9.44778 0 7.95484 0 6.4619 0.0995294C5.56613 0.0995294 4.67037 0.298588 3.7746 0.597177C3.0779 0.895765 2.48072 1.29388 1.88354 1.79153C1.38589 2.38871 0.987773 2.98588 0.689185 3.78212C0.291067 4.57835 0.191537 5.47412 0.191537 6.36988C0.0920077 7.86283 0.0920077 9.35577 0.0920077 10.8487C-0.00752173 12.3417 0.0920077 13.8346 0.191537 15.3275C0.191537 16.2233 0.390596 17.1191 0.689185 18.0148C0.888244 18.7115 1.38589 19.4082 1.88354 19.9059C2.38119 20.5031 3.0779 20.9012 3.7746 21.1002C4.67037 21.3988 5.56613 21.5979 6.4619 21.5979C7.95484 21.6974 9.44778 21.7969 10.9408 21.6974C12.4337 21.7969 13.9266 21.6974 15.4196 21.5979C16.3154 21.5979 17.2111 21.3988 18.1069 21.1002C19.5998 20.6026 20.6946 19.4082 21.2918 17.9153C21.5904 17.1191 21.7895 16.1238 21.7895 15.228C21.7895 14.0337 21.889 13.6355 21.889 10.7492C21.9885 9.25624 21.889 7.7633 21.7895 6.27035C21.7895 5.37459 21.5904 4.47882 21.2918 3.58306C20.9932 2.98588 20.4956 2.38871 19.9979 1.79153C19.5003 1.19435 18.8036 0.796236 18.1069 0.597177C17.2111 0.298588 16.3154 0.0995294 15.4196 0.0995294C13.9266 0 12.4337 0 10.9408 0ZM10.9408 5.27506C7.95484 5.17553 5.4666 7.66377 5.36707 10.6496V10.8487C5.36707 13.9341 7.85531 16.4224 10.9408 16.4224C14.0262 16.4224 16.5144 13.9341 16.5144 10.8487C16.5144 7.7633 14.0262 5.27506 10.9408 5.27506ZM10.9408 14.4318C8.95013 14.4318 7.35766 12.9388 7.35766 10.9482V10.8487C7.35766 8.85812 8.8506 7.26565 10.8412 7.26565H10.9408C12.9314 7.26565 14.5238 8.75859 14.5238 10.7492V10.8487C14.5238 12.8393 13.0309 14.4318 11.0403 14.4318H10.9408ZM16.7135 3.78212C16.0168 3.78212 15.4196 4.3793 15.4196 5.076C15.4196 5.77271 16.0168 6.36988 16.7135 6.36988C17.4102 6.36988 18.0074 5.77271 18.0074 5.076C18.1069 4.3793 17.5097 3.78212 16.7135 3.78212Z" fill="#0F6152"/>
</svg>
