<svg width="27" height="22" viewBox="0 0 27 22" fill="none" xmlns="http://www.w3.org/2000/svg">
<path d="M9.07934 21.6974C17.2905 21.8156 23.8594 15.1961 23.9767 6.92163V6.68522V5.97598C24.9151 5.26674 25.8536 4.32109 26.5574 3.25723C25.619 3.73006 24.5632 3.96647 23.6248 4.08468C24.6805 3.37544 25.5017 2.42979 25.8536 1.24773C24.7978 1.83876 23.7421 2.31158 22.5691 2.548C21.6307 1.48414 20.223 0.774902 18.6981 0.774902C15.7655 0.774902 13.5368 3.13903 13.4195 6.09418C13.4195 6.4488 13.4195 6.92163 13.5368 7.27625C9.31394 7.03983 5.32566 5.03033 2.745 1.72055C2.39309 2.42979 2.15849 3.37544 2.15849 4.32109C2.15849 6.09418 2.97961 7.74907 4.38724 8.69472C3.56612 8.69472 2.745 8.45831 1.92388 7.98549C1.92388 10.4678 3.68342 12.7137 6.14677 13.1866C5.67756 13.3048 5.20835 13.3048 4.73914 13.3048C4.38724 13.3048 4.03533 13.3048 3.80072 13.1866C4.50454 15.3143 6.49868 16.851 8.72743 16.851C6.85059 18.2694 4.62184 19.0969 2.15849 19.0969C1.68928 19.0969 1.33737 19.0969 0.868164 18.9787C3.33151 20.7518 6.14677 21.6974 9.07934 21.6974Z" fill="#0F6152"/>
</svg>
