<svg width="27" height="22" viewBox="0 0 27 22" fill="none" xmlns="http://www.w3.org/2000/svg">
<g clip-path="url(#clip0_157_117)">
<path d="M9.0791 21.6974C17.2903 21.8156 23.8592 15.1961 23.9765 6.92163V6.68522V5.97598C24.9149 5.26674 25.8534 4.32109 26.5572 3.25723C25.6188 3.73006 24.563 3.96647 23.6246 4.08468C24.6803 3.37544 25.5015 2.42979 25.8534 1.24773C24.7976 1.83876 23.7419 2.31158 22.5689 2.548C21.6305 1.48414 20.2228 0.774902 18.6979 0.774902C15.7653 0.774902 13.5366 3.13903 13.4193 6.09418C13.4193 6.4488 13.4193 6.92163 13.5366 7.27625C9.3137 7.03983 5.32542 5.03033 2.74476 1.72055C2.39285 2.42979 2.15825 3.37544 2.15825 4.32109C2.15825 6.09418 2.97937 7.74907 4.387 8.69472C3.56588 8.69472 2.74476 8.45831 1.92364 7.98549C1.92364 10.4678 3.68318 12.7137 6.14653 13.1866C5.67732 13.3048 5.20811 13.3048 4.7389 13.3048C4.387 13.3048 4.03509 13.3048 3.80048 13.1866C4.5043 15.3143 6.49844 16.851 8.72719 16.851C6.85035 18.2694 4.6216 19.0969 2.15825 19.0969C1.68904 19.0969 1.33713 19.0969 0.86792 18.9787C3.33127 20.7518 6.14653 21.6974 9.0791 21.6974Z" fill="white"/>
</g>
<defs>
<clipPath id="clip0_157_117">
<rect width="25.572" height="20.9225" fill="white" transform="translate(0.985229 0.774902)"/>
</clipPath>
</defs>
</svg>
