<svg width="38" height="38" viewBox="0 0 38 38" fill="none" xmlns="http://www.w3.org/2000/svg">
<path d="M11.0343 11.0342C11.1446 10.9236 11.2756 10.8359 11.4199 10.776C11.5642 10.7162 11.7188 10.6854 11.875 10.6854C12.0312 10.6854 12.1859 10.7162 12.3302 10.776C12.4744 10.8359 12.6055 10.9236 12.7158 11.0342L19 17.3209L25.2843 11.0342C25.3947 10.9238 25.5258 10.8362 25.67 10.7765C25.8143 10.7167 25.9689 10.686 26.125 10.686C26.2812 10.686 26.4358 10.7167 26.5801 10.7765C26.7243 10.8362 26.8554 10.9238 26.9658 11.0342C27.0762 11.1446 27.1638 11.2757 27.2235 11.42C27.2833 11.5642 27.314 11.7188 27.314 11.875C27.314 12.0311 27.2833 12.1857 27.2235 12.33C27.1638 12.4743 27.0762 12.6053 26.9658 12.7157L20.6792 19L26.9658 25.2842C27.0762 25.3946 27.1638 25.5257 27.2235 25.67C27.2833 25.8142 27.314 25.9688 27.314 26.125C27.314 26.2811 27.2833 26.4357 27.2235 26.58C27.1638 26.7243 27.0762 26.8553 26.9658 26.9657C26.8554 27.0761 26.7243 27.1637 26.5801 27.2235C26.4358 27.2832 26.2812 27.314 26.125 27.314C25.9689 27.314 25.8143 27.2832 25.67 27.2235C25.5258 27.1637 25.3947 27.0761 25.2843 26.9657L19 20.6791L12.7158 26.9657C12.6054 27.0761 12.4743 27.1637 12.3301 27.2235C12.1858 27.2832 12.0312 27.314 11.875 27.314C11.7189 27.314 11.5643 27.2832 11.42 27.2235C11.2758 27.1637 11.1447 27.0761 11.0343 26.9657C10.9239 26.8553 10.8363 26.7243 10.7766 26.58C10.7168 26.4357 10.686 26.2811 10.686 26.125C10.686 25.9688 10.7168 25.8142 10.7766 25.67C10.8363 25.5257 10.9239 25.3946 11.0343 25.2842L17.3209 19L11.0343 12.7157C10.9237 12.6054 10.836 12.4744 10.7761 12.3301C10.7162 12.1858 10.6854 12.0312 10.6854 11.875C10.6854 11.7188 10.7162 11.5641 10.7761 11.4199C10.836 11.2756 10.9237 11.1445 11.0343 11.0342Z" fill="#0F6152"/>
</svg>
